<?xml version="1.0" encoding="UTF-8"?>
<svg width="156px" height="40px" viewBox="0 0 156 40" version="1.1" xmlns="http://www.w3.org/2000/svg" xmlns:xlink="http://www.w3.org/1999/xlink">
    <!-- Generator: sketchtool 61.2 (101010) - https://sketch.com -->
    <title>F8ED6BD4-FE2B-4857-A2C5-A79105CB183C</title>
    <desc>Created with sketchtool.</desc>
    <g id="Page-1" stroke="none" stroke-width="1" fill="none" fill-rule="evenodd">
        <g id="Payment" transform="translate(-797.000000, -687.000000)" fill-rule="nonzero">
            <g id="Group-6-Copy-5" transform="translate(750.000000, 645.000000)">
                <g id="paypal" transform="translate(47.000000, 42.000000)">
                    <path d="M119.876923,10.5230769 L111.507692,10.5230769 C111.015385,10.5230769 110.523077,11.0153846 110.276923,11.5076923 L106.830769,33.1692308 C106.830769,33.6615385 107.076923,33.9076923 107.569231,33.9076923 L112,33.9076923 C112.492308,33.9076923 112.738462,33.6615385 112.738462,33.1692308 L113.723077,27.0153846 C113.723077,26.5230769 114.215385,26.0307692 114.953846,26.0307692 L117.661538,26.0307692 C123.323077,26.0307692 126.523077,23.3230769 127.261538,17.9076923 C127.753846,15.6923077 127.261538,13.7230769 126.276923,12.4923077 C124.8,11.2615385 122.584615,10.5230769 119.876923,10.5230769 M120.861538,18.6461538 C120.369231,21.6 118.153846,21.6 115.938462,21.6 L114.461538,21.6 L115.446154,15.9384615 C115.446154,15.6923077 115.692308,15.4461538 116.184615,15.4461538 L116.676923,15.4461538 C118.153846,15.4461538 119.630769,15.4461538 120.369231,16.4307692 C120.861538,16.6769231 120.861538,17.4153846 120.861538,18.6461538" id="Shape" fill="#139AD6"></path>
                    <g id="Group" transform="translate(46.461538, 10.461538)" fill="#263B80">
                        <path d="M13.1076923,0.0615384615 L4.73846154,0.0615384615 C4.24615385,0.0615384615 3.75384615,0.553846154 3.50769231,1.04615385 L0.0615384615,22.7076923 C0.0615384615,23.2 0.307692308,23.4461538 0.8,23.4461538 L4.73846154,23.4461538 C5.23076923,23.4461538 5.72307692,22.9538462 5.96923077,22.4615385 L6.95384615,16.5538462 C6.95384615,16.0615385 7.44615385,15.5692308 8.18461538,15.5692308 L10.8923077,15.5692308 C16.5538462,15.5692308 19.7538462,12.8615385 20.4923077,7.44615385 C20.9846154,5.23076923 20.4923077,3.26153846 19.5076923,2.03076923 C18.0307692,0.8 16.0615385,0.0615384615 13.1076923,0.0615384615 M14.0923077,8.18461538 C13.6,11.1384615 11.3846154,11.1384615 9.16923077,11.1384615 L7.93846154,11.1384615 L8.92307692,5.47692308 C8.92307692,5.23076923 9.16923077,4.98461538 9.66153846,4.98461538 L10.1538462,4.98461538 C11.6307692,4.98461538 13.1076923,4.98461538 13.8461538,5.96923077 C14.0923077,6.21538462 14.3384615,6.95384615 14.0923077,8.18461538" id="Shape"></path>
                        <path d="M38.4615385,7.93846154 L34.5230769,7.93846154 C34.2769231,7.93846154 33.7846154,8.18461538 33.7846154,8.43076923 L33.5384615,9.66153846 L33.2923077,9.16923077 C32.3076923,7.93846154 30.5846154,7.44615385 28.6153846,7.44615385 C24.1846154,7.44615385 20.2461538,10.8923077 19.5076923,15.5692308 C19.0153846,18.0307692 19.7538462,20.2461538 20.9846154,21.7230769 C22.2153846,23.2 23.9384615,23.6923077 26.1538462,23.6923077 C29.8461538,23.6923077 31.8153846,21.4769231 31.8153846,21.4769231 L31.5692308,22.7076923 C31.5692308,23.2 31.8153846,23.4461538 32.3076923,23.4461538 L36,23.4461538 C36.4923077,23.4461538 36.9846154,22.9538462 37.2307692,22.4615385 L39.4461538,8.67692308 C39.2,8.43076923 38.7076923,7.93846154 38.4615385,7.93846154 M32.8,15.8153846 C32.3076923,18.0307692 30.5846154,19.7538462 28.1230769,19.7538462 C26.8923077,19.7538462 25.9076923,19.2615385 25.4153846,18.7692308 C24.9230769,18.0307692 24.6769231,17.0461538 24.6769231,15.8153846 C24.9230769,13.6 26.8923077,11.8769231 29.1076923,11.8769231 C30.3384615,11.8769231 31.0769231,12.3692308 31.8153846,12.8615385 C32.5538462,13.6 32.8,14.8307692 32.8,15.8153846" id="Shape"></path>
                    </g>
                    <path d="M144.984615,18.4 L141.046154,18.4 C140.8,18.4 140.307692,18.6461538 140.307692,18.8923077 L140.061538,20.1230769 L139.815385,19.6307692 C138.830769,18.4 137.107692,17.9076923 135.138462,17.9076923 C130.707692,17.9076923 126.769231,21.3538462 126.030769,26.0307692 C125.538462,28.4923077 126.276923,30.7076923 127.507692,32.1846154 C128.738462,33.6615385 130.461538,34.1538462 132.676923,34.1538462 C136.369231,34.1538462 138.338462,31.9384615 138.338462,31.9384615 L138.092308,33.1692308 C138.092308,33.6615385 138.338462,33.9076923 138.830769,33.9076923 L142.523077,33.9076923 C143.015385,33.9076923 143.507692,33.4153846 143.753846,32.9230769 L145.969231,19.1384615 C145.723077,18.8923077 145.476923,18.4 144.984615,18.4 M139.323077,26.2769231 C138.830769,28.4923077 137.107692,30.2153846 134.646154,30.2153846 C133.415385,30.2153846 132.430769,29.7230769 131.938462,29.2307692 C131.446154,28.4923077 131.2,27.5076923 131.2,26.2769231 C131.446154,24.0615385 133.415385,22.3384615 135.630769,22.3384615 C136.861538,22.3384615 137.6,22.8307692 138.338462,23.3230769 C139.323077,24.0615385 139.569231,25.2923077 139.323077,26.2769231" id="Shape" fill="#139AD6"></path>
                    <path d="M106.338462,18.4 L102.153846,18.4 C101.661538,18.4 101.415385,18.6461538 101.169231,18.8923077 L95.7538462,27.2615385 L93.2923077,19.3846154 C93.0461538,18.8923077 92.8,18.6461538 92.0615385,18.6461538 L88.1230769,18.6461538 C87.6307692,18.6461538 87.3846154,19.1384615 87.3846154,19.6307692 L91.8153846,32.6769231 L87.6307692,38.5846154 C87.3846154,39.0769231 87.6307692,39.8153846 88.1230769,39.8153846 L92.0615385,39.8153846 C92.5538462,39.8153846 92.8,39.5692308 93.0461538,39.3230769 L106.584615,19.8769231 C107.323077,19.1384615 106.830769,18.4 106.338462,18.4" id="Path" fill="#263B80"></path>
                    <path d="M149.661538,11.2615385 L146.215385,33.4153846 C146.215385,33.9076923 146.461538,34.1538462 146.953846,34.1538462 L150.4,34.1538462 C150.892308,34.1538462 151.384615,33.6615385 151.630769,33.1692308 L155.076923,11.5076923 C155.076923,11.0153846 154.830769,10.7692308 154.338462,10.7692308 L150.4,10.7692308 C150.153846,10.5230769 149.907692,10.7692308 149.661538,11.2615385" id="Path" fill="#139AD6"></path>
                    <path d="M28.3076923,3.13846154 C26.5846154,1.16923077 23.3846154,0.184615385 18.9538462,0.184615385 L6.64615385,0.184615385 C5.90769231,0.184615385 5.16923077,0.923076923 4.92307692,1.66153846 L0,33.9076923 C0,34.6461538 0.492307692,35.1384615 0.984615385,35.1384615 L8.61538462,35.1384615 L10.5846154,23.0769231 L10.5846154,23.5692308 C10.8307692,22.8307692 11.5692308,22.0923077 12.3076923,22.0923077 L16,22.0923077 C23.1384615,22.0923077 28.5538462,19.1384615 30.2769231,11.0153846 C30.2769231,10.7692308 30.2769231,10.5230769 30.2769231,10.2769231 C30.0307692,10.2769231 30.0307692,10.2769231 30.2769231,10.2769231 C30.5230769,7.07692308 30.0307692,5.10769231 28.3076923,3.13846154" id="Path" fill="#263B80"></path>
                    <path d="M30.0307692,10.2769231 L30.0307692,10.2769231 C30.0307692,10.5230769 30.0307692,10.7692308 30.0307692,11.0153846 C28.3076923,19.3846154 22.8923077,22.0923077 15.7538462,22.0923077 L12.0615385,22.0923077 C11.3230769,22.0923077 10.5846154,22.8307692 10.3384615,23.5692308 L7.87692308,38.5846154 C7.87692308,39.0769231 8.12307692,39.5692308 8.86153846,39.5692308 L15.2615385,39.5692308 C16,39.5692308 16.7384615,39.0769231 16.7384615,38.3384615 L16.7384615,38.0923077 L17.9692308,30.4615385 L17.9692308,29.9692308 C17.9692308,29.2307692 18.7076923,28.7384615 19.4461538,28.7384615 L20.4307692,28.7384615 C26.5846154,28.7384615 31.5076923,26.2769231 32.7384615,18.8923077 C33.2307692,15.9384615 32.9846154,13.2307692 31.5076923,11.5076923 C31.2615385,11.0153846 30.7692308,10.5230769 30.0307692,10.2769231" id="Path" fill="#139AD6"></path>
                    <path d="M28.3076923,9.53846154 C28.0615385,9.53846154 27.8153846,9.29230769 27.5692308,9.29230769 C27.3230769,9.29230769 27.0769231,9.29230769 26.8307692,9.04615385 C25.8461538,8.8 24.8615385,8.8 23.6307692,8.8 L14.0307692,8.8 C13.7846154,8.8 13.5384615,8.8 13.2923077,9.04615385 C12.8,9.29230769 12.5538462,9.78461538 12.5538462,10.2769231 L10.5846154,23.0769231 L10.5846154,23.5692308 C10.8307692,22.8307692 11.5692308,22.0923077 12.3076923,22.0923077 L16,22.0923077 C23.1384615,22.0923077 28.5538462,19.1384615 30.2769231,11.0153846 C30.2769231,10.7692308 30.2769231,10.5230769 30.5230769,10.2769231 C30.0307692,10.0307692 29.7846154,9.78461538 29.2923077,9.78461538 C28.5538462,9.53846154 28.5538462,9.53846154 28.3076923,9.53846154" id="Path" fill="#232C65"></path>
                </g>
            </g>
        </g>
    </g>
</svg>